#!OML:ASF F:\VICON\USERDATA\INSTALL\rory3\rory3.ASF
:FULLY-SPECIFIED
:DEGREES
1514
root -1.69749 14.8198 23.049 238.697 -39.6809 98.1002
lowerback -19.7433 -8.36534 5.85026
upperback -14.6258 -12.6069 3.55145
thorax -5.57872 -7.0359 -1.08738
lowerneck -2.91623 -15.1714 -17.3083
upperneck 17.1516 -22.1691 -0.354292
head 7.61042 -12.3268 0.419404
rclavicle 7.15625e-014 -5.40694e-014
rhumerus -15.5554 -33.2111 24.5703
rradius 37.8345
rwrist -8.89828
rhand -18.8366 -49.4382
rfingers 7.12502
rthumb -172.537 460.713
lclavicle 7.15625e-014 -5.40694e-014
lhumerus -9.61273 16.2018 4.45097
lradius 23.8971
lwrist 36.8134
lhand -31.6353 -13.5549
lfingers 7.12502
lthumb -4.89662 16.3685
rfemur -32.436 0.106074 34.4803
rtibia 54.0227
rfoot 3.21037 -21.6575
rtoes 20.4942
lfemur 1.60851 32.5638 -10.4459
ltibia 94.6802
lfoot 8.19378 -6.64073
ltoes 0.635737
1515
root -1.71308 14.8629 22.9541 240.927 -38.8279 96.7206
lowerback -20.8396 -8.43121 4.54421
upperback -14.6779 -12.5763 3.46122
thorax -4.81461 -6.93979 -0.71762
lowerneck -3.43906 -15.4458 -17.1957
upperneck 17.0492 -22.3884 -0.233108
head 7.68144 -12.3681 0.369901
rclavicle -1.00187e-013 -4.45278e-014
rhumerus -15.7288 -33.5514 24.7044
rradius 37.8409
rwrist -8.85235
rhand -18.6957 -49.5586
rfingers 7.12502
rthumb -172.401 460.598
lclavicle -1.00187e-013 -4.45278e-014
lhumerus -9.59959 16.1612 4.50941
lradius 23.9916
lwrist 37.2131
lhand -31.3039 -13.7032
lfingers 7.12502
lthumb -4.57659 16.2273
rfemur -33.8755 0.815514 33.0985
rtibia 54.7246
rfoot -0.816555 -22.2826
rtoes 24.4138
lfemur 0.823828 32.8267 -12.0656
ltibia 94.2237
lfoot 8.55351 -6.53483
ltoes 0.155401
1516
root -1.75967 14.8595 23.0271 245.356 -39.1359 94.4537
lowerback -22.9605 -8.37172 4.94067
upperback -15.3966 -12.7453 3.33996
thorax -4.75221 -7.13946 -1.31133
lowerneck -3.67972 -15.6558 -17.0932
upperneck 16.9411 -22.5986 -0.155824
head 7.69882 -12.4262 0.33695
rclavicle 1.04163e-013 4.45278e-014
rhumerus -15.9571 -33.5281 24.894
rradius 37.9297
rwrist -8.85063
rhand -18.8353 -49.7235
rfingers 7.12502
rthumb -172.536 460.428
lclavicle 1.04163e-013 4.45278e-014
lhumerus -9.49143 16.2122 4.5776
lradius 23.9908
lwrist 37.3979
lhand -30.5024 -14.373
lfingers 7.12502
lthumb -3.80262 15.5729
rfemur -36.5502 0.0201236 32.7733
rtibia 54.8068
rfoot 0.27964 -22.5267
rtoes 30.7244
lfemur -3.2787 32.0762 -14.9234
ltibia 95.0813
lfoot 8.41669 -5.55448
ltoes 0.454532
1517
root -1.77202 14.8561 23.0573 246.471 -39.2187 93.7341
lowerback -22.8517 -8.24294 5.15947
upperback -15.5318 -12.6168 3.30092
thorax -5.01351 -7.10653 -1.39935
lowerneck -3.26933 -15.6955 -17.1218
upperneck 16.4285 -22.7047 0.150965
head 7.50714 -12.4331 0.485654
rclavicle 9.54166e-015 6.99722e-014
rhumerus -16.0536 -33.4759 25.0168
rradius 38.0391
rwrist -8.83909
rhand -18.8728 -49.6477
rfingers 7.12502
rthumb -172.572 460.503
lclavicle 9.54166e-015 6.99722e-014
lhumerus -9.4069 16.5042 4.62387
lradius 23.8615
lwrist 37.2354
lhand -29.7891 -15.1116
lfingers 7.12502
lthumb -3.11375 14.8454
rfemur -36.5599 0.0337304 32.8766
rtibia 54.9267
rfoot 1.37715 -22.3859
rtoes 22.9957
lfemur -3.35481 32.2554 -14.7722
ltibia 95.2821
lfoot 8.36257 -5.42786
ltoes 1.63799
1518
root -1.78425 14.8637 23.0585 247.547 -39.379 92.9974
lowerback -22.8446 -8.21794 5.2774
upperback -15.597 -12.5966 3.3661
thorax -5.10255 -7.10333 -1.37649
lowerneck -3.02192 -15.6955 -17.2915
upperneck 16.0983 -22.7355 0.494499
head 7.41915 -12.4132 0.641184
rclavicle 8.18993e-014 1.30403e-013
rhumerus -15.9751 -33.556 25.0185
rradius 38.1066
rwrist -8.90935
rhand -18.9875 -49.6606
rfingers 7.12502
rthumb -172.683 460.486
lclavicle 8.18993e-014 1.30403e-013
lhumerus -9.39517 16.7805 4.70179
lradius 23.712
lwrist 37.0664
lhand -29.508 -15.6811
lfingers 7.12502
lthumb -2.84233 14.2797
rfemur -36.4421 0.073767 33.0301
rtibia 54.7989
rfoot 1.46347 -22.4049
rtoes 17.2449
lfemur -3.26422 32.3905 -14.3996
ltibia 95.3872
lfoot 8.34127 -5.5301
ltoes 1.83534
1519
root -1.80614 14.8774 23.0524 248.838 -39.546 91.9967
lowerback -22.9487 -8.29591 5.33677
upperback -15.7204 -12.7011 3.47805
thorax -5.19038 -7.1577 -1.30477
lowerneck -2.90486 -15.6855 -17.4809
upperneck 15.9024 -22.7233 0.696601
head 7.37959 -12.3904 0.74255
rclavicle -4.69132e-014 -1.17681e-013
rhumerus -15.658 -33.5564 24.8494
rradius 38.2357
rwrist -9.00311
rhand -19.0355 -49.8068
rfingers 7.12502
rthumb -172.729 460.338
lclavicle -4.69132e-014 -1.17681e-013
lhumerus -9.72388 16.2646 4.7572
lradius 23.8798
lwrist 37.2188
lhand -30.06 -15.5608
lfingers 7.12502
lthumb -3.37538 14.3922
rfemur -36.3893 -0.0528134 33.0899
rtibia 54.8242
rfoot 0.764437 -22.7107
rtoes 27.1272
lfemur -3.21134 32.3304 -14.1951
ltibia 95.2562
lfoot 8.43766 -5.62495
ltoes 1.48025
1520
root -1.824 14.9016 23.0335 250.338 -39.542 90.7224
lowerback -23.0038 -8.43012 5.23267
upperback -15.8871 -12.8476 3.45084
thorax -5.35379 -7.23347 -1.28497
lowerneck -2.54143 -15.6789 -17.2963
upperneck 15.4037 -22.7331 0.776648
head 7.14366 -12.3642 0.810974
rclavicle -2.22639e-014 -7.31528e-014
rhumerus -15.5127 -33.3606 24.6815
rradius 38.4362
rwrist -9.31172
rhand -18.4378 -49.1953
rfingers 7.12502
rthumb -172.152 460.97
lclavicle -2.22639e-014 -7.31528e-014
lhumerus -10.0476 14.6109 4.81104
lradius 24.4704
lwrist 37.3082
lhand -33.1255 -11.0949
lfingers 7.12502
lthumb -6.33534 18.7904
rfemur -36.4921 -0.216924 32.8641
rtibia 54.8471
rfoot 0.443557 -22.7039
rtoes 23.7599
lfemur -3.29669 32.1031 -14.3814
ltibia 95.0459
lfoot 8.63833 -5.43842
ltoes 1.91158
1521
root -1.8292 14.9519 22.989 251.598 -39.1229 89.752
lowerback -22.97 -8.41802 4.9473
upperback -15.9386 -12.776 3.29299
thorax -5.3998 -7.18872 -1.28146
lowerneck -2.24734 -15.8021 -17.0827
upperneck 14.7461 -22.901 1.0211
head 6.89718 -12.3822 0.904817
rclavicle -5.32743e-014 1.145e-013
rhumerus -15.6077 -33.3859 24.6868
rradius 38.4786
rwrist -9.74133
rhand -18.363 -48.8316
rfingers 7.12502
rthumb -172.08 461.337
lclavicle -5.32743e-014 1.145e-013
lhumerus -9.96737 13.6903 4.86591
lradius 24.719
lwrist 37.3136
lhand -35.6735 -6.31173
lfingers 7.12502
lthumb -8.79471 23.485
rfemur -36.838 -0.0451581 32.241
rtibia 55.1603
rfoot -0.248375 -22.3056
rtoes 26.896
lfemur -3.16291 32.2276 -14.8963
ltibia 94.5668
lfoot 8.85144 -5.39366
ltoes 1.22791
1522
root -1.84511 14.9234 23.0454 252.629 -39.0306 88.9802
lowerback -22.8314 -8.31125 5.07309
upperback -15.868 -12.634 3.22723
thorax -5.41962 -7.1213 -1.37766
lowerneck -2.52738 -16.0403 -17.1107
upperneck 14.3889 -23.1214 1.36105
head 6.88771 -12.4174 0.968318
rclavicle 1.30403e-013 2.03555e-013
rhumerus -15.7845 -33.6811 24.8163
rradius 38.4895
rwrist -10.1108
rhand -19.305 -49.9404
rfingers 7.12502
rthumb -172.989 460.196
lclavicle 1.30403e-013 2.03555e-013
lhumerus -9.61734 14.5312 4.91862
lradius 24.3013
lwrist 37.3862
lhand -35.7234 -6.64237
lfingers 7.12502
lthumb -8.84293 23.1524
rfemur -36.512 -0.056779 32.2989
rtibia 55.0593
rfoot 0.354216 -22.5672
rtoes 30.3125
lfemur -3.11503 32.3918 -14.8722
ltibia 94.7914
lfoot 8.61031 -5.51108
ltoes 0.250104
1523
root -1.86716 14.8943 23.0505 254.363 -37.85 87.8654
lowerback -23.3462 -8.3421 3.79877
upperback -15.811 -12.4825 2.94339
thorax -4.87946 -6.96509 -1.11143
lowerneck -3.46063 -16.406 -16.8321
upperneck 14.4162 -23.3957 1.512
head 7.05766 -12.465 0.854537
rclavicle -1.82087e-013 6.36111e-015
rhumerus -16.4282 -33.9164 25.0896
rradius 38.7058
rwrist -10.4346
rhand -19.8736 -51.0119
rfingers 7.12502
rthumb -173.538 459.107
lclavicle -1.82087e-013 6.36111e-015
lhumerus -9.00701 15.5864 5.08531
lradius 23.9504
lwrist 37.4266
lhand -35.1774 -7.87862
lfingers 7.12502
lthumb -8.31595 21.9377
rfemur -37.1149 0.256382 31.0971
rtibia 55.2485
rfoot 0.429146 -22.7199
rtoes 23.4329
lfemur -3.83794 32.4749 -16.5541
ltibia 94.7395
lfoot 8.75878 -5.06023
ltoes 0.824137
1524
root -1.87833 14.8949 23.0567 255.265 -37.3156 87.1746
lowerback -23.0398 -8.43422 3.47713
upperback -15.9557 -12.5295 2.95657
thorax -5.12233 -6.96946 -0.871891
lowerneck -3.35245 -16.3335 -16.979
upperneck 14.1424 -23.2928 1.81856
head 6.99587 -12.3872 0.9963
rclavicle -5.80451e-014 5.08889e-014
rhumerus -15.9916 -33.8616 24.5704
rradius 38.9338
rwrist -10.6302
rhand -19.7017 -51.1062
rfingers 7.12502
rthumb -173.372 459.018
lclavicle -5.80451e-014 5.08889e-014
lhumerus -9.50425 15.1912 4.83588
lradius 24.0031
lwrist 37.7785
lhand -35.0407 -8.35682
lfingers 7.12502
lthumb -8.1841 21.4647
rfemur -36.9527 0.351547 30.6234
rtibia 55.282
rfoot -0.189585 -22.76
rtoes 24.1342
lfemur -3.5321 32.6819 -16.9331
ltibia 94.5759
lfoot 8.69665 -4.84426
ltoes 0.88399
1525
root -1.90555 14.9163 23.0566 256.195 -37.5665 86.2287
lowerback -22.9057 -8.40363 3.9742
upperback -15.9428 -12.5466 2.8149
thorax -5.32078 -7.01829 -1.24482
lowerneck -3.13804 -16.358 -16.8403
upperneck 13.9023 -23.3811 2.09819
head 6.90784 -12.394 1.08507
rclavicle 2.62396e-014 -1.97194e-013
rhumerus -16.035 -33.7597 24.3909
rradius 39.0508
rwrist -10.5992
rhand -19.4004 -51.0057
rfingers 7.12502
rthumb -173.081 459.127
lclavicle 2.62396e-014 -1.97194e-013
lhumerus -9.52858 14.6673 4.72589
lradius 24.0824
lwrist 38.1144
lhand -35.0454 -8.63703
lfingers 7.12502
lthumb -8.18857 21.1843
rfemur -36.4159 -0.0751453 30.9203
rtibia 55.2554
rfoot -1.24525 -22.9394
rtoes 24.0554
lfemur -2.85152 32.501 -16.3627
ltibia 94.2797
lfoot 8.60382 -4.97362
ltoes 0.250761
1526
root -1.93379 14.9323 23.0515 257.424 -36.993 85.1453
lowerback -22.9881 -8.44539 3.51999
upperback -15.983 -12.5204 2.61902
thorax -5.2755 -6.98385 -1.22363
lowerneck -2.78326 -16.4388 -16.8198
upperneck 13.3807 -23.5335 2.41494
head 6.7293 -12.4277 1.21585
rclavicle -7.4743e-014 -1.43125e-013
rhumerus -15.9827 -34.2358 24.4124
rradius 38.8781
rwrist -10.0389
rhand -19.0633 -50.7186
rfingers 7.12502
rthumb -172.756 459.425
lclavicle -7.4743e-014 -1.43125e-013
lhumerus -9.44101 14.63 4.89196
lradius 24.1519
lwrist 38.0443
lhand -35.1763 -8.17067
lfingers 7.12502
lthumb -8.31493 21.6457
rfemur -36.3046 -0.295738 30.305
rtibia 55.3849
rfoot -0.580599 -22.4062
rtoes 29.9084
lfemur -2.57623 32.3416 -17.0594
ltibia 93.8472
lfoot 8.71014 -4.71263
ltoes -0.0333913
